<svg viewBox="0 0 100 100" fill="none" xmlns="http://www.w3.org/2000/svg">
  <!-- Green Head -->
  <circle cx="65" cy="20" r="14" fill="#00A67E"/>
  
  <!-- Purple Arm -->
  <path d="M45 40 H80 C88.28 40 95 46.72 95 55 V80 C95 88.28 88.28 95 80 95 C71.72 95 65 88.28 65 80 V60 H45 C36.72 60 30 53.28 30 45 C30 36.72 36.72 40 45 40 Z" fill="#8E44AD"/>
  
  <!-- Orange Arm -->
  <path d="M10 50 H45 C53.28 50 60 56.72 60 65 V90 C60 98.28 53.28 105 45 105 C36.72 105 30 98.28 30 90 V70 H10 C1.72 70 -5 63.28 -5 55 C-5 46.72 1.72 50 10 50 Z" fill="#E67E22"/>
  
  <!-- Blue Arm -->
  <path d="M30 65 H55 C63.28 65 70 71.72 70 80 V100 C70 108.28 63.28 115 55 115 C46.72 115 40 108.28 40 100 V85 H30 C21.72 85 15 78.28 15 70 C15 61.72 21.72 65 30 65 Z" fill="#2980B9"/>
</svg>
